<svg width="352" height="352" viewBox="0 0 352 352" fill="none" xmlns="http://www.w3.org/2000/svg">
<g clip-path="url(#clip0_0_1)">
<path d="M327.343 126.661V75.61L276.026 49.9329L226.129 0L176 12.5356L125.871 0L75.9741 49.9329L24.6572 75.61V126.661L0 176.012L24.6572 225.362V276.413L75.9741 302.09L125.871 352.023L176 339.488L226.129 352.023L276.026 302.09L327.343 276.413V225.362L352 176.012L327.343 126.661ZM304.059 219.863V262.014L263.918 282.099L219.005 326.206L176 315.442L132.995 326.206L91.0851 284.266L47.9174 261.99V219.863L26.031 176.012L47.9407 132.16V90.0097L88.0815 69.9247L133.019 25.7936L176.023 36.5584L219.028 25.7936L260.938 67.7344L304.106 90.0097V132.16L325.969 176.012L304.059 219.863Z" fill="#FF6CE7"/>
<path d="M237.61 97.8828L97.9147 237.68L114.379 254.155L254.074 114.359L237.61 97.8828Z" fill="#FF6CE7"/>
<path d="M129.433 164.361C148.688 164.361 164.358 148.68 164.358 129.411C164.358 110.141 148.688 94.46 129.433 94.46C110.178 94.46 94.5077 110.141 94.5077 129.411C94.5077 148.68 110.178 164.361 129.433 164.361ZM129.433 117.76C135.859 117.76 141.075 122.98 141.075 129.411C141.075 135.842 135.859 141.061 129.433 141.061C123.007 141.061 117.791 135.842 117.791 129.411C117.791 122.98 123.007 117.76 129.433 117.76Z" fill="#FF6CE7"/>
<path d="M222.567 187.662C203.312 187.662 187.642 203.343 187.642 222.613C187.642 241.882 203.312 257.563 222.567 257.563C241.822 257.563 257.492 241.882 257.492 222.613C257.492 203.343 241.822 187.662 222.567 187.662ZM222.567 234.263C216.141 234.263 210.925 229.043 210.925 222.613C210.925 216.182 216.141 210.962 222.567 210.962C228.993 210.962 234.209 216.182 234.209 222.613C234.209 229.043 228.993 234.263 222.567 234.263Z" fill="#FF6CE7"/>
</g>
<defs>
</defs>
</svg>
