<svg width="373" height="371" viewBox="0 0 373 371" fill="none" xmlns="http://www.w3.org/2000/svg">
<path d="M361.551 10.7958C352.263 1.2725 338.516 -2.2754 325.698 1.45923L26.7888 88.2892C13.2645 92.0424 3.67862 102.817 1.09638 116.504C-1.5416 130.434 7.67269 148.118 19.7108 155.513L113.174 212.895C122.759 218.776 135.131 217.302 143.064 209.31L250.088 101.734C255.476 96.1319 264.392 96.1319 269.78 101.734C275.168 107.149 275.168 115.925 269.78 121.527L162.57 229.121C154.619 237.096 153.133 249.513 158.985 259.148L216.092 353.447C222.779 364.651 234.297 371 246.93 371C248.416 371 250.088 371 251.574 370.813C266.065 368.946 277.583 359.049 281.855 345.044L370.468 46.8349C374.37 34.1372 370.841 20.3191 361.551 10.7958Z" fill="#FF6CE7"/>
</svg>
