<svg width="337" height="394" viewBox="0 0 337 394" fill="none" xmlns="http://www.w3.org/2000/svg">
<path fill-rule="evenodd" clip-rule="evenodd" d="M163.139 392.3C165.322 393.439 167.763 394.018 170.205 393.999C172.646 393.98 175.067 393.381 177.27 392.222L247.609 354.648C267.554 344.024 283.174 332.143 295.36 318.311C321.856 288.175 336.325 249.714 336.068 210.054L335.234 79.233C335.155 64.1651 325.251 50.7199 310.603 45.8324L179.751 1.96142C171.872 -0.704458 163.239 -0.646505 155.498 2.09665L25.1422 47.5324C10.5743 52.613 0.849214 66.1548 0.928614 81.2421L1.76218 211.966C2.02019 251.684 16.9849 289.972 43.9174 319.799C56.2227 333.437 71.9813 345.144 92.146 355.595L163.139 392.3ZM144.519 238.546C147.456 241.367 151.267 242.757 155.077 242.719C158.888 242.699 162.679 241.27 165.576 238.411L242.445 162.685C248.22 156.986 248.161 147.829 242.325 142.207C236.47 136.586 227.043 136.624 221.268 142.324L154.859 207.734L127.668 181.616C121.814 175.995 112.406 176.053 106.611 181.751C100.835 187.45 100.895 196.607 106.75 202.228L144.519 238.546Z" fill="#FF6CE7"/>
</svg>
