<svg width="322" height="306" viewBox="0 0 322 306" fill="none" xmlns="http://www.w3.org/2000/svg">
<path d="M256.24 190.354C252.071 194.395 250.155 200.239 251.105 205.971L265.415 285.183C266.622 291.897 263.789 298.691 258.171 302.571C252.666 306.596 245.342 307.079 239.338 303.859L168.044 266.668C165.565 265.348 162.813 264.639 159.996 264.559H155.634C154.12 264.784 152.64 265.267 151.287 266.008L79.9777 303.376C76.4525 305.147 72.4604 305.775 68.5488 305.147C59.0194 303.344 52.6611 294.263 54.2225 284.684L68.5488 205.472C69.4986 199.692 67.583 193.816 63.4139 189.71L5.28776 133.36C0.426477 128.643 -1.2637 121.559 0.957677 115.167C3.11467 108.791 8.61984 104.139 15.2679 103.092L95.2698 91.4842C101.355 90.8563 106.699 87.1533 109.435 81.6793L144.688 9.39032C145.525 7.78032 146.603 6.29912 147.907 5.04332L149.356 3.91632C150.112 3.07912 150.982 2.38682 151.947 1.82334L153.702 1.17934L156.438 0.0523376H163.215C169.268 0.680238 174.596 4.30272 177.381 9.71232L213.1 81.6793C215.675 86.944 220.681 90.5987 226.46 91.4842L306.462 103.092C313.223 104.058 318.873 108.727 321.11 115.167C323.219 121.623 321.4 128.707 316.442 133.36L256.24 190.354Z" fill="#FF6CE7"/>
</svg>
